<svg xmlns="http://www.w3.org/2000/svg" xmlns:xlink="http://www.w3.org/1999/xlink" viewBox="0 0 416.23 332"><defs><style>.cls-1,.cls-14{fill:none;}.cls-2{isolation:isolate;}.cls-11,.cls-3,.cls-4{fill:#0058ff;}.cls-3,.cls-4{opacity:0.23;}.cls-11,.cls-14,.cls-4{stroke:#0058ff;stroke-miterlimit:10;}.cls-5{fill:url(#Degradado_sin_nombre_23);}.cls-6{fill:url(#Degradado_sin_nombre_23-2);}.cls-7{fill:url(#Degradado_sin_nombre_23-3);}.cls-8{fill:url(#Degradado_sin_nombre_24);}.cls-9{fill:url(#Degradado_sin_nombre_25);}.cls-10{fill:url(#Degradado_sin_nombre_11);}.cls-11{stroke-width:6px;}.cls-12{opacity:0.46;fill:url(#Degradado_sin_nombre_12);}.cls-13{fill:url(#Degradado_sin_nombre_36);}.cls-15{fill:#17171d;opacity:0.26;}.cls-16{fill:url(#Degradado_sin_nombre_38);}.cls-17{fill:url(#Degradado_sin_nombre_39);}.cls-18,.cls-24{opacity:0.2;}.cls-18,.cls-24,.cls-33{mix-blend-mode:screen;}.cls-18{fill:url(#Degradado_sin_nombre_20);}.cls-19{opacity:0.96;}.cls-20{clip-path:url(#clip-path);}.cls-21{fill:url(#Degradado_sin_nombre_17);}.cls-22,.cls-23,.cls-27,.cls-28{opacity:0.74;}.cls-22{fill:url(#Degradado_sin_nombre_10);}.cls-23{fill:url(#Degradado_sin_nombre_19);}.cls-24{fill:url(#Degradado_sin_nombre_20-2);}.cls-25{clip-path:url(#clip-path-2);}.cls-26{fill:url(#Degradado_sin_nombre_17-2);}.cls-27{fill:url(#Degradado_sin_nombre_10-2);}.cls-28{fill:url(#Degradado_sin_nombre_19-2);}.cls-29{fill:url(#Degradado_sin_nombre_45);}.cls-30{fill:url(#Degradado_sin_nombre_30);}.cls-31{fill:url(#Degradado_sin_nombre_27);}.cls-32{opacity:0.67;}.cls-33,.cls-35,.cls-36{opacity:0.72;}.cls-34{fill:url(#Degradado_sin_nombre_20-3);}.cls-35{fill:url(#Degradado_sin_nombre_46);}.cls-37{fill:url(#Degradado_sin_nombre_44);}.cls-38{opacity:0.36;}.cls-39{fill:url(#Degradado_sin_nombre_11-2);}.cls-40{opacity:0.57;}.cls-41{fill:url(#Degradado_sin_nombre_11-3);}.cls-42{opacity:0.68;}.cls-43{fill:url(#Degradado_sin_nombre_11-4);}.cls-44{fill:url(#Degradado_sin_nombre_11-5);}.cls-45{fill:url(#Degradado_sin_nombre_11-6);}.cls-46{fill:url(#Degradado_sin_nombre_11-7);}</style><linearGradient id="Degradado_sin_nombre_23" x1="-241.54" y1="301.6" x2="-17.14" y2="301.6" gradientTransform="translate(376.93 -232.28)" gradientUnits="userSpaceOnUse"><stop offset="0" stop-color="#17171d"/><stop offset="0.38" stop-color="#0e316f"/><stop offset="0.97" stop-color="#0058e8"/></linearGradient><linearGradient id="Degradado_sin_nombre_23-2" x1="-241.54" y1="321.73" x2="-80.85" y2="321.73" gradientTransform="translate(440.64 -272.54)" xlink:href="#Degradado_sin_nombre_23"/><linearGradient id="Degradado_sin_nombre_23-3" x1="-245.45" y1="338.59" x2="-80.85" y2="338.59" gradientTransform="translate(444.55 -306.26)" xlink:href="#Degradado_sin_nombre_23"/><linearGradient id="Degradado_sin_nombre_24" x1="-136.78" y1="323.55" x2="87.61" y2="323.55" gradientTransform="translate(272.17 -238.68)" xlink:href="#Degradado_sin_nombre_23"/><linearGradient id="Degradado_sin_nombre_25" x1="-112.18" y1="345.4" x2="112.22" y2="345.4" gradientTransform="translate(247.57 -244.24)" xlink:href="#Degradado_sin_nombre_23"/><linearGradient id="Degradado_sin_nombre_11" x1="43.77" y1="333.86" x2="314.86" y2="305.29" gradientUnits="userSpaceOnUse"><stop offset="0" stop-color="#17171d"/><stop offset="0.1" stop-color="#161923"/><stop offset="0.24" stop-color="#141e33"/><stop offset="0.4" stop-color="#11274f"/><stop offset="0.57" stop-color="#0d3375"/><stop offset="0.75" stop-color="#0743a6"/><stop offset="0.94" stop-color="#0156e1"/><stop offset="0.96" stop-color="#0058e8"/></linearGradient><linearGradient id="Degradado_sin_nombre_12" x1="177.2" y1="556.89" x2="182.4" y2="-23.09" gradientUnits="userSpaceOnUse"><stop offset="0" stop-color="#17171d"/><stop offset="0.12" stop-color="#151d30"/><stop offset="0.37" stop-color="#0f2d61"/><stop offset="0.72" stop-color="#0746af"/><stop offset="0.96" stop-color="#0058e8"/></linearGradient><linearGradient id="Degradado_sin_nombre_36" x1="374.83" y1="79.64" x2="600.86" y2="75.61" gradientTransform="translate(-137.2 120.06)" gradientUnits="userSpaceOnUse"><stop offset="0" stop-color="#17171d"/><stop offset="0.12" stop-color="#132346"/><stop offset="0.27" stop-color="#0e3176"/><stop offset="0.43" stop-color="#0a3c9d"/><stop offset="0.58" stop-color="#0745bc"/><stop offset="0.73" stop-color="#054bd1"/><stop offset="0.87" stop-color="#034fdf"/><stop offset="1" stop-color="#0350e3"/><stop offset="1" stop-color="#0252eb"/><stop offset="1" stop-color="#0156f6"/><stop offset="1" stop-color="#0057fd"/><stop offset="1" stop-color="#0058ff"/></linearGradient><linearGradient id="Degradado_sin_nombre_38" x1="212.11" y1="198.91" x2="232.59" y2="198.91" gradientTransform="translate(23.43 421.26) rotate(-90)" gradientUnits="userSpaceOnUse"><stop offset="0" stop-color="#17171d"/><stop offset="0.01" stop-color="#161a25"/><stop offset="0.1" stop-color="#112853"/><stop offset="0.2" stop-color="#0c357b"/><stop offset="0.29" stop-color="#09409d"/><stop offset="0.4" stop-color="#0549b8"/><stop offset="0.51" stop-color="#034fcd"/><stop offset="0.63" stop-color="#0154dc"/><stop offset="0.78" stop-color="#0057e5"/><stop offset="1" stop-color="#0058e8"/></linearGradient><linearGradient id="Degradado_sin_nombre_39" x1="-2389.36" y1="-2318.93" x2="-2379.15" y2="-2318.93" gradientTransform="translate(266.66 3522.86) rotate(45)" gradientUnits="userSpaceOnUse"><stop offset="0" stop-color="#17171d"/><stop offset="0.08" stop-color="#142039"/><stop offset="0.26" stop-color="#0e316e"/><stop offset="0.43" stop-color="#093f99"/><stop offset="0.59" stop-color="#054abc"/><stop offset="0.74" stop-color="#0252d4"/><stop offset="0.88" stop-color="#0156e3"/><stop offset="1" stop-color="#0058e8"/></linearGradient><linearGradient id="Degradado_sin_nombre_20" x1="6047.58" y1="-628.72" x2="5999.58" y2="-628.36" gradientTransform="matrix(1, 0, 0, -1, -5920.19, -380.12)" gradientUnits="userSpaceOnUse"><stop offset="0" stop-color="#17171d"/><stop offset="0.03" stop-color="#141f39"/><stop offset="0.07" stop-color="#102b62"/><stop offset="0.12" stop-color="#0c3688"/><stop offset="0.18" stop-color="#093fa8"/><stop offset="0.24" stop-color="#0647c4"/><stop offset="0.3" stop-color="#044dda"/><stop offset="0.38" stop-color="#0252ea"/><stop offset="0.48" stop-color="#0156f6"/><stop offset="0.62" stop-color="#0057fd"/><stop offset="1" stop-color="#0058ff"/></linearGradient><clipPath id="clip-path"><rect class="cls-1" x="76.4" y="225.97" width="44.71" height="44.83" rx="8.5"/></clipPath><linearGradient id="Degradado_sin_nombre_17" x1="5151.05" y1="1165.16" x2="5126" y2="1195" gradientTransform="translate(-5048.19 -913.76)" gradientUnits="userSpaceOnUse"><stop offset="0"/><stop offset="0.03" stop-color="#000d22"/><stop offset="0.08" stop-color="#001d4b"/><stop offset="0.13" stop-color="#002b71"/><stop offset="0.18" stop-color="#003791"/><stop offset="0.24" stop-color="#0041ad"/><stop offset="0.31" stop-color="#004ac3"/><stop offset="0.39" stop-color="#0050d4"/><stop offset="0.48" stop-color="#0055df"/><stop offset="0.62" stop-color="#0057e6"/><stop offset="1" stop-color="#0058e8"/></linearGradient><linearGradient id="Degradado_sin_nombre_10" x1="5167.91" y1="1166.08" x2="5146.27" y2="1189.07" gradientTransform="translate(-5048.19 -913.76)" gradientUnits="userSpaceOnUse"><stop offset="0" stop-color="#17171d"/><stop offset="0.11" stop-color="#13213d"/><stop offset="0.35" stop-color="#0d357a"/><stop offset="0.56" stop-color="#0744a9"/><stop offset="0.75" stop-color="#034fcb"/><stop offset="0.9" stop-color="#0156e0"/><stop offset="1" stop-color="#0058e8"/></linearGradient><linearGradient id="Degradado_sin_nombre_19" x1="-2454.85" y1="-2577.38" x2="-2464.08" y2="-2577.31" gradientTransform="matrix(-0.8, -0.6, -0.6, 0.8, -3411.96, 814.79)" gradientUnits="userSpaceOnUse"><stop offset="0" stop-color="#17171d"/><stop offset="0.28" stop-color="#0f2e6d"/><stop offset="0.53" stop-color="#0940ab"/><stop offset="0.74" stop-color="#044dd9"/><stop offset="0.91" stop-color="#0155f5"/><stop offset="1" stop-color="#0058ff"/></linearGradient><linearGradient id="Degradado_sin_nombre_20-2" x1="6100.97" y1="-628.72" x2="6052.97" y2="-628.36" xlink:href="#Degradado_sin_nombre_20"/><clipPath id="clip-path-2"><rect class="cls-1" x="129.79" y="225.96" width="44.71" height="44.83" rx="8.5"/></clipPath><linearGradient id="Degradado_sin_nombre_17-2" x1="5204.43" y1="1165.16" x2="5179.39" y2="1194.99" xlink:href="#Degradado_sin_nombre_17"/><linearGradient id="Degradado_sin_nombre_10-2" x1="5221.29" y1="1166.08" x2="5199.66" y2="1189.07" xlink:href="#Degradado_sin_nombre_10"/><linearGradient id="Degradado_sin_nombre_19-2" x1="-2497.44" y1="-2609.56" x2="-2506.68" y2="-2609.49" xlink:href="#Degradado_sin_nombre_19"/><linearGradient id="Degradado_sin_nombre_45" x1="136.76" y1="36.5" x2="151.92" y2="36.5" gradientUnits="userSpaceOnUse"><stop offset="0" stop-color="#17171d"/><stop offset="0" stop-color="#17181f"/><stop offset="0.15" stop-color="#112854"/><stop offset="0.29" stop-color="#0c3782"/><stop offset="0.44" stop-color="#0743a8"/><stop offset="0.58" stop-color="#044cc5"/><stop offset="0.73" stop-color="#0253d9"/><stop offset="0.87" stop-color="#0057e6"/><stop offset="1" stop-color="#0058ea"/></linearGradient><linearGradient id="Degradado_sin_nombre_30" x1="176.56" y1="47.81" x2="176.56" y2="25.2" gradientUnits="userSpaceOnUse"><stop offset="0" stop-color="#17171d"/><stop offset="0.03" stop-color="#161923"/><stop offset="0.51" stop-color="#0a3b8d"/><stop offset="0.84" stop-color="#0350d0"/><stop offset="1" stop-color="#0058ea"/></linearGradient><linearGradient id="Degradado_sin_nombre_27" x1="153.71" y1="36.5" x2="167.19" y2="36.5" gradientTransform="translate(154.35 -127.93) rotate(75.06)" gradientUnits="userSpaceOnUse"><stop offset="0" stop-color="#17171d"/><stop offset="0.39" stop-color="#0d3272"/><stop offset="0.81" stop-color="#044dc8"/><stop offset="1" stop-color="#0058ea"/></linearGradient><linearGradient id="Degradado_sin_nombre_20-3" x1="16.28" y1="89.6" x2="44.29" y2="89.6" gradientTransform="matrix(1, 0, 0, 1, 0, 0)" xlink:href="#Degradado_sin_nombre_20"/><linearGradient id="Degradado_sin_nombre_46" x1="22.85" y1="82.64" x2="37.72" y2="82.64" gradientUnits="userSpaceOnUse"><stop offset="0" stop-color="#17171d"/><stop offset="0.09" stop-color="#151d30"/><stop offset="1" stop-color="#0058e8"/></linearGradient><linearGradient id="Degradado_sin_nombre_44" x1="-4101.23" y1="-736.58" x2="-4084.89" y2="-720.24" gradientTransform="translate(-4062.78 -628.88) rotate(180)" gradientUnits="userSpaceOnUse"><stop offset="0" stop-color="#17171d"/><stop offset="0.16" stop-color="#11274f"/><stop offset="0.36" stop-color="#0b3885"/><stop offset="0.55" stop-color="#0646b0"/><stop offset="0.72" stop-color="#0350cf"/><stop offset="0.86" stop-color="#0156e1"/><stop offset="0.96" stop-color="#0058e8"/></linearGradient><linearGradient id="Degradado_sin_nombre_11-2" x1="41.64" y1="138.99" x2="78.08" y2="138.99" xlink:href="#Degradado_sin_nombre_11"/><linearGradient id="Degradado_sin_nombre_11-3" x1="55.65" y1="145.61" x2="62.47" y2="133.81" xlink:href="#Degradado_sin_nombre_11"/><linearGradient id="Degradado_sin_nombre_11-4" x1="73.17" y1="46.23" x2="80.04" y2="46.23" xlink:href="#Degradado_sin_nombre_11"/><linearGradient id="Degradado_sin_nombre_11-5" x1="55.9" y1="36.21" x2="83.35" y2="36.21" xlink:href="#Degradado_sin_nombre_11"/><linearGradient id="Degradado_sin_nombre_11-6" x1="41.07" y1="48.92" x2="47.94" y2="48.92" xlink:href="#Degradado_sin_nombre_11"/><linearGradient id="Degradado_sin_nombre_11-7" x1="23.8" y1="38.9" x2="51.26" y2="38.9" xlink:href="#Degradado_sin_nombre_11"/></defs><g class="cls-2"><g id="Capa_1" data-name="Capa 1"><rect class="cls-3" x="11.28" y="71.52" width="104.8" height="104.8" rx="3.26"/><rect class="cls-4" x="11.28" y="71.52" width="104.8" height="104.8" rx="3.26"/><rect class="cls-5" x="135.39" y="65.86" width="224.4" height="6.92" transform="translate(495.18 138.64) rotate(180)"/><rect class="cls-6" x="199.09" y="45.73" width="160.7" height="6.92" transform="translate(558.88 98.38) rotate(180)"/><rect class="cls-7" x="199.09" y="28.87" width="164.61" height="6.92" transform="translate(562.79 64.66) rotate(180)"/><rect class="cls-8" x="135.39" y="81.42" width="224.4" height="6.92" transform="translate(495.18 169.75) rotate(180)"/><rect class="cls-9" x="135.39" y="97.7" width="224.4" height="6.92" transform="translate(495.18 202.31) rotate(180)"/><rect class="cls-10" x="59.86" y="144.07" width="238.91" height="351" rx="9"/><line class="cls-11" x1="128.65" y1="164.94" x2="167.52" y2="164.94"/><line class="cls-11" x1="76.4" y1="181.94" x2="115.27" y2="181.94"/><line class="cls-11" x1="76.4" y1="164.94" x2="115.27" y2="164.94"/><path class="cls-12" d="M59.86,221.09H298.78a0,0,0,0,1,0,0v200a9.54,9.54,0,0,1-9.54,9.54h-220a9.4,9.4,0,0,1-9.4-9.4V221.09A0,0,0,0,1,59.86,221.09Z"/><rect class="cls-13" x="208.4" y="185.09" width="161.26" height="27.39"/><rect class="cls-14" x="208.4" y="184.84" width="27.89" height="27.89" rx="0.87"/><rect class="cls-3" x="208.4" y="184.84" width="27.89" height="27.89" rx="0.87"/><path class="cls-15" d="M205.92,179.75H387.51a6.76,6.76,0,0,1,6.76,6.76V363.6a6.76,6.76,0,0,1-6.76,6.76H203.18a6.76,6.76,0,0,1-6.76-6.76V189.25a9.5,9.5,0,0,1,9.5-9.5Z" transform="translate(570.39 -20.29) rotate(90)"/><path class="cls-16" d="M232.68,206.83l-5-5a8.61,8.61,0,1,0-2.41,2.39l4.86,4.89Z"/><path class="cls-17" d="M215.38,197.21a5.09,5.09,0,0,1,1.48-3.61,5.11,5.11,0,1,1,3.61,8.7,5.11,5.11,0,0,1-3.61-1.48A5,5,0,0,1,215.38,197.21Z"/><rect class="cls-18" x="76.4" y="225.97" width="44.71" height="44.83" rx="8.5"/><g class="cls-19"><g class="cls-20"><path class="cls-21" d="M84.47,248.32,66.54,267.64c0,2.14,1,3.68,2,3.68h39.4a2.94,2.94,0,0,0,2-4.48L91.93,248.32C89.71,245.49,86.69,245.49,84.47,248.32Z"/></g></g><path class="cls-22" d="M102.81,253.6,88.29,267.14a2.28,2.28,0,0,0-.3,3.06,1.38,1.38,0,0,0,1,.6h29.75a2.38,2.38,0,0,0,2.36-2.68v-3.92L109.27,253.6A4.09,4.09,0,0,0,102.81,253.6Z"/><circle class="cls-23" cx="104.77" cy="241.52" r="4.32"/><rect class="cls-24" x="129.79" y="225.96" width="44.71" height="44.83" rx="8.5"/><g class="cls-19"><g class="cls-25"><path class="cls-26" d="M137.85,248.31l-17.92,19.33c0,2.14,1,3.67,1.95,3.67h39.41a2.93,2.93,0,0,0,2-4.48l-17.92-18.52C143.09,245.49,140.08,245.49,137.85,248.31Z"/></g></g><path class="cls-27" d="M156.2,253.6l-14.52,13.54a2.24,2.24,0,0,0-.3,3.05,1.38,1.38,0,0,0,1,.6h29.76a2.38,2.38,0,0,0,2.35-2.68v-3.92L162.65,253.6A4.08,4.08,0,0,0,156.2,253.6Z"/><circle class="cls-28" cx="158.16" cy="241.52" r="4.32"/><polygon class="cls-29" points="148.05 47.81 136.76 36.51 148.05 25.2 151.92 29.07 144.48 36.51 151.92 43.94 148.05 47.81"/><polygon class="cls-30" points="172.85 47.81 168.98 43.94 176.42 36.51 168.98 29.07 172.85 25.2 184.14 36.51 172.85 47.81"/><rect class="cls-31" x="144.52" y="33.77" width="31.85" height="5.46" transform="translate(83.81 182.12) rotate(-75.06)"/><g class="cls-32"><g class="cls-33"><path class="cls-34" d="M19.08,99.3l-2.8-.22,1.19-15.3a4.23,4.23,0,0,1,4.19-3.88H38.91a4.23,4.23,0,0,1,4.19,3.88l1.19,15.3-2.8.22"/></g><path class="cls-35" d="M31.71,87.08V74.85h-2.8V87.12l-6.06-4.21v2.35a.86.86,0,0,0,.41.68l6,4.19a1.7,1.7,0,0,0,1,.29,1.73,1.73,0,0,0,1-.29l6-4.19a.86.86,0,0,0,.41-.68V82.91Z"/><g class="cls-36"><path class="cls-37" d="M38.7,105.14H21.87a5.61,5.61,0,0,1,0-11.22H38.7a5.61,5.61,0,0,1,0,11.22Z"/></g></g><g class="cls-38"><path class="cls-39" d="M70.79,157.21H48.93a7.3,7.3,0,0,1-7.29-7.29V128.06a7.3,7.3,0,0,1,7.29-7.29H70.79a7.3,7.3,0,0,1,7.29,7.29v21.86A7.3,7.3,0,0,1,70.79,157.21Z"/></g><g class="cls-40"><path class="cls-41" d="M57.31,146.07a3.19,3.19,0,0,1-3.19-3.19v-8.37a3.18,3.18,0,0,1,4.81-2.74L66,136a3.2,3.2,0,0,1,0,5.49l-7.08,4.18A3.12,3.12,0,0,1,57.31,146.07Zm-.23-11.17h0Z"/></g><g class="cls-42"><path class="cls-43" d="M79.54,45.57l-4.31,3.35a1.28,1.28,0,0,1-1.57-2L78,43.55a1.28,1.28,0,1,1,1.57,2Z"/><path class="cls-44" d="M81.47,38.19,67.61,49A4.87,4.87,0,0,1,60.22,43l.37-.71-2.51-3.23a10.26,10.26,0,0,1,1.76-14.41A10,10,0,0,1,74,26.2l.27.33,2.47,3.24.73-.18a4.86,4.86,0,0,1,4,8.6Z"/></g><g class="cls-42"><path class="cls-45" d="M47.45,48.26l-4.31,3.35a1.28,1.28,0,1,1-1.57-2l4.31-3.35a1.28,1.28,0,1,1,1.57,2Z"/><path class="cls-46" d="M49.38,40.88,35.52,51.66a4.87,4.87,0,0,1-7.39-5.94l.37-.7L26,41.78a10.26,10.26,0,0,1,1.77-14.41,10,10,0,0,1,14.14,1.52l.27.33,2.47,3.24.73-.18a4.87,4.87,0,0,1,4,8.6Z"/></g></g></g></svg>