<svg version="1" xmlns="http://www.w3.org/2000/svg" width="1600" height="1600" viewBox="0 0 1200.000000 1200.000000"><path d="M84.5 2.1c-9.1 1.3-24.5 6.6-33 11.4-18.7 10.7-31.5 24.7-41 44.8C5.6 68.7 3.6 75.8 2.1 88 .5 100.2.6 1101.1 2.1 1113.5c4.1 33.7 24.9 62.3 56 76.9 11 5.2 17.9 7.1 30.9 8.6 6.7.8 157.7 1 518.5.8l509-.3 8.3-2.3c36.7-9.8 63.7-37.2 72.9-73.8 1.6-6.5 1.7-36.4 2-517.9.3-362.8.1-513.5-.7-519.5-1.4-10.7-6.4-25.6-11.9-35.3-15-26.1-42-44.5-71.4-48.6C1106.2.8 93.9.8 84.5 2.1zm324 239.8c5.5 2.6 65.8 63.2 68 68.3.8 2.1 1.5 6.3 1.5 9.5 0 10.5-1.7 12.8-34.4 45.3l-29.5 29.4 20.8 21.1c23.5 23.7 24.6 25.5 23.9 36.9-.8 12.4-9.3 21.2-21.7 22.3-11.4 1.1-11.9.7-46.4-33.6-34-33.7-35.8-36-35.8-46.1-.1-10.7 1.2-12.4 34.1-45.5l30-30-20.6-20.5c-22.6-22.5-24.7-25.5-24.7-35 0-9.6 5.4-18.2 13.8-22.1 5.4-2.5 15.6-2.5 21 0zm149.3-.4c4.5 1.9 63.1 59.9 66.8 66.2 3.5 5.7 4.2 13.5 1.9 20.4-1.6 5-4.2 7.9-32.4 36.2L563.6 395l20.6 20.8c22 22 24.7 25.8 24.8 34.1 0 7.4-2 12.2-7.5 17.6-5.4 5.5-10.2 7.5-17.6 7.5-8.8-.1-11.6-2.2-44.2-34.8-17-16.9-31.7-32.4-32.8-34.5-3-5.7-3.5-12.4-1.4-18.8 1.6-5 4.2-7.8 32.3-36.1l30.6-30.8-21-21.2c-18-18.2-21.3-22-22.7-26.2-4.1-12 .1-23.5 10.8-29.7 4.2-2.4 6.1-2.9 11.8-2.9 3.9 0 8.4.7 10.5 1.5zm150.2.6c5.7 2.6 63.7 60.3 66.8 66.4 3.1 6.3 3.6 11.6 1.7 18.2-1.6 5.6-2.6 6.7-32.6 36.8l-30.9 31 20.5 20.5c12.3 12.2 21.3 22.1 22.5 24.5 6.2 12.9.8 27.9-12.2 33.5-6.1 2.6-15.1 2.4-20.8-.5-1.9-.9-17.3-15.5-34.2-32.4-32.9-32.8-34.7-35.2-34.8-44.5 0-10.8-.2-10.6 33.4-44.4l31.1-31.2-20.7-20.8c-14.7-14.7-21.3-22-22.7-25.2-5.5-12.1.3-27.3 12.4-32.6 4.7-2.1 15.2-1.7 20.5.7zm120.3 264.6c7.8 3.6 12.4 7.9 15.7 14.6 4.9 10 4.9 13.3-.4 36.6-2.5 11.3-4.6 20.8-4.6 21.2 0 .4 18.8.9 41.8 1.1l41.7.3 6.7 3.3c7.2 3.5 11.3 7.7 15 15.2 2.1 4.2 2.3 5.7 2.1 21-.4 40.8-13.2 76.5-39.8 110.5-7.8 10-25.3 27.1-36.3 35.4-31 23.4-66.6 37.4-99.2 38.8-12.3.5-14 .3-19.2-1.7-6.8-2.5-13.5-8.7-16.9-15.7-4.8-9.6-4.5-10.9 20.3-120.8l22.4-99-209.5-.3c-115.2-.1-209.7 0-209.9.3-.3.3 7 33.7 16.2 74.3 26.5 116.5 30.5 133.6 33.2 141.9 16.1 49.4 55.4 89.2 104.9 106.2 20.2 7 30.6 8.6 56 8.6 19-.1 23.4-.4 32.5-2.3 31.4-6.8 56.3-19.6 81.2-41.5 12.5-11.1 17-13.2 27.3-13.2 27 .2 40.3 31.9 21.9 52.4l-4.4 4.9 29.2.4 29.3.3 5.7 2.8c7 3.4 14 11 16.2 17.4 2 6 2 15.6 0 21.6-2.1 6.2-9.2 13.9-15.6 17.1l-5.2 2.6H329.5l-5-2.4c-6.3-2.9-13.8-11.1-15.9-17.3-.9-2.6-1.6-7.4-1.6-10.8 0-3.4.7-8.2 1.6-10.8 2.2-6.4 9.2-14 16.2-17.4l5.7-2.8 39.3-.3 39.4-.3-7.9-8.3c-25.2-26.2-44.2-58.4-54.6-92.7-1.5-4.7-15.3-64.1-30.9-132C285 531 285.3 532.4 289.8 523c4.6-9.5 12.7-16 22.4-17.9 2.4-.5 118.4-.8 257.8-.7l253.5.1 4.8 2.2z"/><path d="M814.7 687c-5.5 24.1-9.7 44.4-9.5 45 .5 1.5 16.7-8 27.3-16 23.4-17.7 40.2-41.5 47.9-67.8l1.5-5.2h-57.4l-9.8 44z"/></svg>